<svg width="32" height="32" viewBox="0 0 32 32" fill="currentColor" xmlns="http://www.w3.org/2000/svg">
<rect opacity="0.01" width="32" height="32" fill="currentColor"/>
<path fill-rule="evenodd" clip-rule="evenodd" d="M8.92906 8.92937C10.8178 7.04031 13.3287 6 16 6C18.6709 6 21.1819 7.04031 23.0709 8.92937C24.9597 10.8178 26 13.3291 26 16C26 18.6709 24.9597 21.1822 23.0706 23.0706C21.1819 24.9597 18.6709 26 16 26C13.3287 26 10.8178 24.9597 8.92906 23.0706C7.04031 21.1822 6 18.6709 6 16C6 13.3291 7.04031 10.8178 8.92906 8.92937ZM10.3434 10.3435C8.82955 11.8571 8 13.8596 8 16C8 18.1404 8.82955 20.1429 10.3434 21.6565C11.8571 23.1705 13.8593 24 16 24C18.1404 24 20.1426 23.1705 21.6566 21.6562C23.1704 20.1429 24 18.1405 24 16C24 13.8596 23.1705 11.8571 21.6567 10.3436C20.1427 8.82952 18.1404 8 16 8C13.8593 8 11.8571 8.8295 10.3434 10.3435ZM15 16.9684V11H17V16.0316L19.6402 18.2318L18.3598 19.7682L15 16.9684Z" fill="currentColor"/>
</svg>
