<svg viewBox="0 0 32 32" fill="currentColor" xmlns="http://www.w3.org/2000/svg">
<rect opacity="0.01" fill="currentColor"/>
<path fill-rule="evenodd" clip-rule="evenodd" d="M7.71519 16.9355L16.0008 25.1667L24.2848 16.9339C26.5717 14.6606 26.5717 10.9773 24.2848 8.70424C23.1406 7.56904 21.6421 7 20.142 7C18.6422 7 17.5016 7.5 16.0008 8.70424C14.5016 7.5 13.3565 7 11.858 7C10.3595 7 8.85943 7.56904 7.71519 8.70424C5.42827 10.9775 5.42827 14.6609 7.71519 16.9355ZM22.8762 10.1241C24.375 11.6138 24.375 14.0242 22.8748 15.5155L16.0005 22.3472L9.12474 15.5166C7.62488 14.0248 7.62488 11.614 9.12517 10.1227C9.85946 9.39419 10.8379 9 11.858 9C12.8283 9 13.5497 9.30073 14.7483 10.2635L16.0001 11.269L17.2525 10.2641C18.4548 9.29939 19.1722 9 20.142 9C21.163 9 22.1401 9.39375 22.8762 10.1241Z" fill="currentColor"/>
</svg>
