<svg width="32" height="32" viewBox="0 0 32 32" fill="currentColor" xmlns="http://www.w3.org/2000/svg">
<rect opacity="0.01" width="32" height="32" fill="currentColor"/>
<path fill-rule="evenodd" clip-rule="evenodd" d="M6 16C6 21.5228 10.4772 26 16 26C21.5228 26 26 21.5228 26 16C26 10.4772 21.5228 6 16 6C10.4772 6 6 10.4772 6 16ZM14.2533 22.1766C13.9376 21.5452 13.6731 20.8096 13.4697 20H18.5303C18.3269 20.8096 18.0624 21.5452 17.7467 22.1766C17.1188 23.4324 16.4478 24 16 24C15.5522 24 14.8812 23.4324 14.2533 22.1766ZM13.1116 14C13.0384 14.6448 13 15.3151 13 16C13 16.6849 13.0384 17.3552 13.1116 18H18.8884C18.9616 17.3552 19 16.6849 19 16C19 15.3151 18.9616 14.6448 18.8884 14H13.1116ZM12.547 23.2146C11.0935 22.5157 9.88379 21.3903 9.07999 20.0008H11.4258C11.6916 21.2174 12.0749 22.3078 12.547 23.2146ZM8.25745 14C8.09292 14.6392 8.00541 15.3094 8.00541 16C8.00541 16.6906 8.09292 17.3608 8.25745 18H11.1054C11.0398 17.3538 11.0054 16.6849 11.0054 16C11.0054 15.3151 11.0398 14.6462 11.1054 14H8.25745ZM19.4583 23.2125C20.9118 22.5135 22.1215 21.3882 22.9253 19.9987H20.5795C20.3137 21.2153 19.9304 22.3057 19.4583 23.2125ZM22.9253 11.9987C22.1215 10.6091 20.9118 9.4838 19.4583 8.78483C19.9304 9.69162 20.3137 10.782 20.5795 11.9987H22.9253ZM23.9956 15.9987C23.9956 15.3081 23.9081 14.6379 23.7435 13.9987H20.8955C20.9611 14.6449 20.9956 15.3137 20.9956 15.9987C20.9956 16.6836 20.9611 17.3524 20.8955 17.9987H23.7435C23.9081 17.3594 23.9956 16.6893 23.9956 15.9987ZM13.4697 12C13.6731 11.1904 13.9376 10.4548 14.2533 9.82336C14.8812 8.56758 15.5522 8 16 8C16.4478 8 17.1188 8.56758 17.7467 9.82336C18.0624 10.4548 18.3269 11.1904 18.5303 12H13.4697ZM11.4318 11.9907C11.6976 10.7741 12.0809 9.68368 12.5531 8.7769C11.0995 9.47586 9.88981 10.6012 9.08601 11.9907H11.4318Z" fill="currentColor"/>
</svg>
