<svg viewBox="0 0 32 32" fill="currentColor" xmlns="http://www.w3.org/2000/svg">
<rect opacity="0.01" fill="currentColor"/>
<path fill-rule="evenodd" clip-rule="evenodd" d="M16.0001 26C16.2001 26 23.9999 21.5 23.9999 14.2829C23.9999 9.5 20.3912 6 16.0001 6C11.5886 6 8 9.5 8 14.2862C8 21.5 15.7897 25.9954 16.0001 26ZM18.6425 21.4522C17.8601 22.2553 17.0096 22.9669 16.1831 23.5488C16.1207 23.5927 16.0593 23.6352 15.9993 23.6762C15.9383 23.6346 15.8759 23.5914 15.8124 23.5467C14.9861 22.9651 14.1358 22.2538 13.3538 21.451C11.2371 19.2781 10 16.8565 10 14.2862C10 10.6719 12.6272 8 16.0001 8C19.3602 8 21.9999 10.6794 21.9999 14.2829C21.9999 16.8541 20.7614 19.2773 18.6425 21.4522ZM16 18C13.7909 18 12 16.2091 12 14C12 11.7909 13.7909 10 16 10C18.2091 10 20 11.7909 20 14C20 16.2091 18.2091 18 16 18ZM18 14C18 15.1046 17.1046 16 16 16C14.8954 16 14 15.1046 14 14C14 12.8954 14.8954 12 16 12C17.1046 12 18 12.8954 18 14Z" fill="currentColor"/>
</svg>
