<svg width="32" height="32" viewBox="0 0 32 32" fill="currentColor" xmlns="http://www.w3.org/2000/svg">
<rect opacity="0.01" width="32" height="32" fill="currentColor"/>
<path fill-rule="evenodd" clip-rule="evenodd" d="M19.0001 23H24.7218C24.7661 23 24.8185 22.9582 24.8208 22.9066C24.8208 22.9066 24.903 21.6745 24.5001 20C24.1907 18.7141 23.8346 18.0178 23.5075 17.3783C23.0364 16.4571 22.6255 15.6535 22.5006 13.3749C22.2892 9.51426 20.4126 6 16.0085 6C11.6045 6 9.89762 9.69835 9.7506 13.3749C9.66436 15.5317 9.19216 16.3534 8.64794 17.3004C8.26446 17.9678 7.84523 18.6973 7.50008 20C7.05998 21.6611 7.19293 22.9058 7.19293 22.9058C7.19637 22.9533 7.24291 23 7.29525 23H13.0001C13.0001 24.6569 14.3432 26 16.0001 26C17.6569 26 19.0001 24.6569 19.0001 23ZM22.5556 20.4679C22.4115 19.869 22.256 19.4121 22.0643 18.9805C22.0036 18.8437 21.9386 18.7078 21.857 18.545C21.8287 18.4886 21.7534 18.3409 21.6942 18.2248L21.6191 18.0774C20.9269 16.7071 20.618 15.5726 20.5036 13.4843C20.3127 9.99773 18.7773 8 16.0085 8C13.345 8 11.886 10.0284 11.749 13.4548C11.6681 15.4793 11.3168 16.6469 10.5271 18.0431C10.4944 18.1008 10.4134 18.2423 10.3497 18.3533L10.2684 18.4954C10.1771 18.6559 10.107 18.7836 10.0414 18.9102C9.79154 19.392 9.60299 19.872 9.43337 20.5122C9.38925 20.6788 9.35152 20.8417 9.3196 21H22.6695C22.6373 20.8281 22.5995 20.6504 22.5556 20.4679ZM16.0001 24C16.5524 24 17.0001 23.5523 17.0001 23H15.0001C15.0001 23.5523 15.4478 24 16.0001 24Z" fill="currentColor"/>
</svg>
