<svg viewBox="0 0 32 32" fill="currentColor" xmlns="http://www.w3.org/2000/svg">
<rect opacity="0.01" fill="currentColor"/>
<path fill-rule="evenodd" clip-rule="evenodd" d="M20.3634 18.8492L25.7418 24.2276L24.3276 25.6418L18.9617 20.2759C17.598 21.3554 15.8743 22 14 22C9.58172 22 6 18.4183 6 14C6 9.58172 9.58172 6 14 6C18.4183 6 22 9.58172 22 14C22 15.8231 21.3902 17.5038 20.3634 18.8492ZM14 20C17.3137 20 20 17.3137 20 14C20 10.6863 17.3137 8 14 8C10.6863 8 8 10.6863 8 14C8 17.3137 10.6863 20 14 20Z" fill="currentColor"/>
</svg>
