<svg viewBox="0 0 32 32" fill="currentColor" xmlns="http://www.w3.org/2000/svg">
<rect opacity="0.01" fill="currentColor"/>
<path fill-rule="evenodd" clip-rule="evenodd" d="M21.5 11.5C21.5 8.46583 19.0342 6 16 6C12.9658 6 10.5 8.46583 10.5 11.5C10.5 14.5433 12.9658 17 16 17C19.0342 17 21.5 14.5433 21.5 11.5ZM12.5 11.5C12.5 9.5704 14.0704 8 16 8C17.9296 8 19.5 9.5704 19.5 11.5C19.5 13.4351 17.9333 15 16 15C14.0667 15 12.5 13.4351 12.5 11.5ZM16 20C11.8995 20 9.77357 21.0637 9.17757 24H22.8224C22.2264 21.0637 20.1005 20 16 20ZM25 26C25 19.5968 21.001 18 16 18C10.999 18 7 19.5968 7 26H25Z" fill="currentColor"/>
</svg>
